<svg xmlns="http://www.w3.org/2000/svg" xmlns:xlink="http://www.w3.org/1999/xlink" width="240px" height="240px" viewBox="20 -20 200 200" version="1.1">
  <g id="surface1">
    <path style="fill:none;stroke-width:5;stroke-linecap:butt;stroke-linejoin:miter;stroke:rgb(0%,0%,0%);stroke-opacity:1;stroke-miterlimit:4;" d="M 240.5 112.5 C 241.5 112.5 242.302083 112.5 243.197917 112.5 C 244.145833 112.5 245.072917 112.5 245.791667 112.5 C 246.854167 112.5 247.697917 112.5 248.583333 112.5 C 249.5 112.5 250.416667 112.5 251.208333 112.5 C 252.145833 112.5 252.645833 111.796875 252.052083 111.28125 C 251.40625 110.703125 250.510417 110.476562 249.697917 110.109375 C 248.90625 109.757812 248.09375 109.609375 247.302083 109.476562 C 246.291667 109.304688 245.520833 108.921875 244.5 108.664062 C 243.71875 108.476562 242.989583 108.5 241.90625 108.5 C 241 108.5 240.104167 108.5 239.197917 108.5 C 238.302083 108.5 237.447917 108.414062 236.53125 108.5 C 235.65625 108.585938 235.479167 109.5 235.5 110.296875 C 235.53125 111.203125 236.072917 111.960938 236.447917 112.796875 C 236.791667 113.570312 237.229167 114.242188 237.697917 114.984375 C 238.125 115.65625 238.770833 116.5625 239.145833 117.195312 C 239.635417 118.046875 239.864583 119.007812 240.697917 119.414062 C 241.458333 119.78125 242.197917 120.203125 242.791667 120.796875 C 243.479167 121.476562 244.041667 122.25 244.885417 122.460938 C 245.760417 122.6875 246.927083 122.945312 247.5 122.414062 C 248.177083 121.78125 248.260417 120.960938 248.479167 120 C 248.677083 119.132812 248.229167 118.070312 248.71875 117.5 C 249.239583 116.890625 249.802083 116.195312 249.447917 115.445312 C 249.0625 114.65625 248 114.515625 247.104167 114.5 C 246.197917 114.484375 245.354167 114.117188 244.614583 113.78125 C 243.885417 113.453125 242.979167 113.5 242.020833 113.5 C 241.09375 113.5 240.166667 113.59375 239.322917 113.460938 C 238.364583 113.320312 237.739583 112.640625 236.854167 112.507812 C 236.010417 112.375 235.6875 112.992188 236.333333 113.664062 C 236.9375 114.296875 237.5625 114.78125 238.197917 115.148438 C 239.020833 115.609375 239.552083 116.328125 240.302083 116.5 C 241.177083 116.695312 241.927083 117.1875 242.802083 117.445312 C 243.666667 117.695312 244.166667 118.414062 245 118.476562 C 245.635417 118.53125 245 117.523438 244.072917 117.5 L 243.5 117.851562 " transform="matrix(0.375,0,0,0.5,0,0)"/>
    <path style="fill:none;stroke-width:5;stroke-linecap:butt;stroke-linejoin:miter;stroke:rgb(0%,0%,0%);stroke-opacity:1;stroke-miterlimit:4;" d="M 341.5 120.5 C 341.5 121.5 341.5 122.296875 341.5 123.203125 C 341.5 124.101562 341.34375 125.015625 341.510417 125.898438 C 341.6875 126.84375 342.447917 127.28125 343.208333 127.554688 C 344.041667 127.859375 344.84375 128.335938 345.604167 128.71875 C 346.302083 129.078125 347.072917 129.5 347.9375 129.5 C 348.885417 129.5 349.78125 129.5 350.666667 129.5 C 351.552083 129.5 352.270833 129.195312 352.854167 128.554688 C 353.375 127.976562 353.302083 127.179688 353.5 126.304688 C 353.677083 125.492188 354.489583 124.976562 354.5 124.101562 C 354.510417 123.203125 354.5 122.335938 354.5 121.398438 C 354.5 120.523438 354.458333 119.695312 354 118.976562 C 353.510417 118.226562 353 117.640625 352.302083 117.210938 C 351.625 116.804688 351.041667 115.992188 350.333333 115.335938 C 349.71875 114.757812 348.895833 114.507812 348 114.5 C 347.104167 114.492188 346.197917 114.5 345.302083 114.5 C 344.333333 114.5 343.802083 114.867188 343.416667 115.585938 C 342.989583 116.367188 342.5 117.023438 342.5 117.890625 C 342.5 118.789062 342.5 119.703125 342.5 120.601562 C 342.5 121.5 342.479167 122.382812 342.5 123.203125 C 342.53125 124.140625 342.791667 124.890625 343.5 125.445312 C 344.135417 125.929688 344.947917 125.835938 345.666667 126.335938 C 346.385417 126.835938 347.302083 126.5 348.333333 126.5 C 349.145833 126.5 349.9375 126.328125 350.552083 125.851562 C 351.260417 125.304688 351.6875 124.757812 351.46875 123.890625 C 351.25 123.046875 350.447917 122.445312 349.854167 121.851562 C 349.21875 121.21875 348.552083 120.53125 347.666667 120.5 C 346.854167 120.476562 345.854167 120.367188 345.145833 120.851562 C 344.416667 121.359375 344.5 122.375 344.5 123.21875 C 344.5 124.078125 345.010417 124.625 345.927083 124.5 C 346.739583 124.390625 347.322917 123.554688 347.9375 123.078125 C 348.729167 122.460938 349.40625 122.109375 350 121.523438 C 350.46875 121.046875 351.375 120.226562 351.09375 119.554688 C 350.75 118.765625 349.666667 118.859375 348.802083 118.445312 C 347.989583 118.0625 347.197917 117.632812 346.552083 117.148438 C 345.885417 116.640625 345.21875 116.78125 344.583333 117.414062 L 344 118 " transform="matrix(0.375,0,0,0.5,0,0)"/>
    <path style="fill:none;stroke-width:5;stroke-linecap:butt;stroke-linejoin:miter;stroke:rgb(0%,0%,0%);stroke-opacity:1;stroke-miterlimit:4;" d="M 183.5 185.5 C 184.604167 185.539062 185.364583 185.640625 186.364583 185.945312 C 187.1875 186.195312 187.635417 186.382812 188.604167 186.796875 C 189.135417 187.015625 189.6875 187.25 191.447917 188.140625 C 192.072917 188.460938 192.71875 188.8125 193.385417 189.171875 C 194.0625 189.539062 194.760417 189.921875 195.46875 190.3125 C 196.1875 190.703125 197.666667 191.5 198.416667 191.898438 C 199.1875 192.304688 199.958333 192.703125 200.75 193.109375 C 201.541667 193.523438 202.34375 193.9375 203.166667 194.359375 C 203.989583 194.78125 205.666667 195.664062 206.520833 196.125 C 207.385417 196.585938 208.260417 197.054688 209.135417 197.523438 C 210.020833 198 210.90625 198.476562 211.802083 198.945312 C 212.697917 199.421875 214.5 200.335938 215.395833 200.78125 C 216.291667 201.21875 217.1875 201.640625 218.072917 202.054688 C 218.9375 202.460938 219.791667 202.851562 220.625 203.242188 C 221.447917 203.617188 223 204.335938 223.739583 204.679688 C 224.447917 205.015625 225.135417 205.335938 225.802083 205.65625 C 226.458333 205.960938 227.104167 206.257812 227.739583 206.539062 C 228.375 206.820312 229.666667 207.335938 230.322917 207.578125 C 230.979167 207.820312 231.65625 208.046875 232.333333 208.273438 C 233.020833 208.5 233.708333 208.726562 234.40625 208.953125 C 235.104167 209.179688 236.5 209.664062 237.197917 209.921875 C 237.90625 210.179688 238.604167 210.453125 239.3125 210.726562 C 240.020833 211 240.739583 211.28125 241.458333 211.546875 C 242.1875 211.820312 243.666667 212.335938 244.416667 212.578125 C 245.177083 212.820312 245.947917 213.046875 246.729167 213.25 C 247.5 213.460938 248.270833 213.65625 249.052083 213.835938 C 249.8125 214.015625 251.333333 214.335938 252.083333 214.476562 C 252.8125 214.617188 253.541667 214.75 254.260417 214.875 C 254.979167 215 255.6875 215.125 256.395833 215.25 C 257.104167 215.382812 258.5 215.664062 259.197917 215.820312 C 259.90625 215.984375 260.604167 216.15625 261.3125 216.335938 C 262.020833 216.515625 262.739583 216.710938 263.458333 216.90625 C 264.1875 217.101562 265.666667 217.5 266.416667 217.703125 C 267.1875 217.898438 267.947917 218.09375 268.729167 218.289062 C 269.5 218.484375 270.270833 218.664062 271.052083 218.84375 C 271.8125 219.015625 273.333333 219.335938 274.083333 219.476562 C 274.8125 219.617188 275.541667 219.742188 276.260417 219.867188 C 276.979167 219.984375 277.6875 220.09375 278.395833 220.195312 C 279.09375 220.296875 280.5 220.5 281.197917 220.601562 C 281.895833 220.703125 282.604167 220.796875 283.302083 220.898438 C 284 221 284.697917 221.101562 285.395833 221.203125 C 286.104167 221.296875 288.197917 221.601562 288.895833 221.703125 C 289.604167 221.796875 290.302083 221.898438 291 222 C 291.697917 222.101562 292.395833 222.203125 293.104167 222.296875 C 295.197917 222.601562 295.895833 222.703125 296.604167 222.796875 C 297.302083 222.898438 298 223 298.697917 223.101562 C 299.395833 223.203125 300.104167 223.304688 302.197917 223.601562 C 302.895833 223.695312 303.59375 223.796875 304.291667 223.890625 C 304.979167 223.984375 305.666667 224.078125 307.010417 224.210938 C 308.333333 224.34375 308.979167 224.382812 309.614583 224.414062 C 310.854167 224.476562 311.458333 224.484375 312.052083 224.492188 C 313.208333 224.5 314.333333 224.5 315.416667 224.5 C 315.947917 224.5 317 224.5 317.520833 224.5 C 318.583333 224.5 319.666667 224.5 320.21875 224.5 C 321.354167 224.5 321.9375 224.5 323.114583 224.5 C 323.708333 224.5 324.302083 224.5 326.104167 224.5 C 326.697917 224.5 327.302083 224.5 328.520833 224.476562 C 329.135417 224.46875 329.760417 224.453125 330.385417 224.414062 C 332.322917 224.304688 332.989583 224.21875 333.666667 224.140625 C 334.354167 224.070312 335.0625 223.976562 335.78125 223.890625 C 336.520833 223.796875 337.270833 223.695312 338.833333 223.5 C 339.645833 223.398438 340.46875 223.296875 341.3125 223.195312 C 342.177083 223.09375 343.041667 222.984375 343.916667 222.867188 C 344.8125 222.742188 345.708333 222.625 347.5 222.335938 C 348.40625 222.1875 349.302083 222.015625 350.197917 221.84375 C 351.104167 221.679688 352 221.5 352.895833 221.328125 C 353.802083 221.148438 354.697917 220.96875 356.5 220.664062 C 357.395833 220.515625 358.302083 220.382812 359.197917 220.257812 C 360.104167 220.132812 361 220.015625 361.895833 219.914062 C 362.802083 219.804688 363.697917 219.703125 365.5 219.5 C 366.395833 219.398438 367.302083 219.296875 368.197917 219.195312 C 369.104167 219.09375 370 218.984375 370.895833 218.867188 C 371.802083 218.742188 372.697917 218.625 374.5 218.335938 C 375.395833 218.1875 376.302083 218.015625 377.1875 217.835938 C 378.083333 217.65625 378.958333 217.460938 379.822917 217.25 C 380.6875 217.046875 381.53125 216.835938 383.166667 216.335938 C 383.958333 216.085938 384.729167 215.820312 385.489583 215.539062 C 386.239583 215.257812 386.979167 214.960938 387.71875 214.65625 C 388.447917 214.34375 389.1875 214.023438 390.666667 213.335938 C 391.427083 212.984375 392.1875 212.617188 392.958333 212.242188 C 393.75 211.867188 394.541667 211.476562 395.34375 211.085938 C 396.166667 210.695312 396.979167 210.296875 398.666667 209.5 C 399.520833 209.09375 400.385417 208.703125 401.25 208.296875 C 402.114583 207.890625 402.979167 207.484375 403.84375 207.0625 C 404.6875 206.648438 405.541667 206.234375 407.166667 205.335938 C 407.958333 204.890625 408.729167 204.421875 409.479167 203.945312 C 410.208333 203.484375 410.916667 203.007812 411.604167 202.523438 C 412.28125 202.054688 412.927083 201.585938 414.166667 200.664062 C 414.760417 200.226562 415.333333 199.789062 415.885417 199.359375 C 416.427083 198.945312 416.958333 198.539062 417.479167 198.148438 C 417.989583 197.757812 418.489583 197.375 419.5 196.664062 C 420 196.320312 420.5 195.984375 421 195.65625 C 421.510417 195.320312 422.020833 195 422.53125 194.671875 C 423.052083 194.34375 423.583333 194.015625 424.666667 193.335938 C 425.21875 192.976562 425.78125 192.617188 426.354167 192.242188 C 426.927083 191.867188 427.5 191.484375 428.072917 191.085938 C 428.645833 190.695312 429.21875 190.304688 430.333333 189.5 C 430.885417 189.101562 431.416667 188.703125 431.947917 188.296875 C 432.46875 187.890625 432.979167 187.484375 433.489583 187.0625 C 434 186.648438 434.510417 186.226562 435.5 185.335938 C 436 184.882812 436.5 184.414062 437 183.945312 C 437.5 183.476562 438 183 438.5 182.523438 C 439 182.054688 439.489583 181.578125 440.5 180.664062 C 441 180.21875 441.5 179.78125 442 179.351562 C 442.489583 178.921875 442.989583 178.507812 443.947917 177.648438 C 444.416667 177.21875 445.34375 176.335938 445.78125 175.875 C 446.65625 174.960938 447.052083 174.476562 447.458333 174 C 447.854167 173.53125 448.614583 172.585938 449.333333 171.664062 C 450.020833 170.789062 450.34375 170.359375 450.979167 169.523438 C 451.291667 169.109375 451.895833 168.304688 452.5 167.5 C 453.104167 166.695312 453.697917 165.890625 454 165.476562 C 454.604167 164.648438 454.916667 164.226562 455.802083 162.875 C 456.104167 162.414062 456.697917 161.460938 457 160.976562 C 457.302083 160.492188 457.895833 159.5 458.5 158.5 C 458.802083 158 459.395833 157.007812 459.6875 156.507812 C 460.270833 155.539062 460.552083 155.0625 461.333333 153.664062 C 461.583333 153.226562 462.041667 152.359375 462.479167 151.539062 C 462.6875 151.148438 463.083333 150.382812 463.697917 149.320312 C 464.083333 148.65625 464.677083 147.71875 465.010417 147.101562 C 465.5 146.210938 465.895833 145.320312 466.135417 144.460938 C 466.427083 143.4375 466.479167 142.75 466.583333 141.984375 L 467 141.023438 L 467.447917 140.203125 " transform="matrix(0.375,0,0,0.5,0,0)"/>
    <path style="fill:none;stroke-width:5;stroke-linecap:butt;stroke-linejoin:miter;stroke:rgb(0%,0%,0%);stroke-opacity:1;stroke-miterlimit:4;" d="M 143.5 60.5 C 144.385417 60.5 145.364583 60.5 146.072917 60.5 C 147 60.5 147.760417 60.5 148.625 60.5 C 149.604167 60.5 150.125 60.5 151.833333 60.5 C 152.447917 60.5 153.072917 60.5 153.71875 60.5 C 155.083333 60.5 155.791667 60.5 156.520833 60.5 C 157.270833 60.5 158.833333 60.5 159.645833 60.5 C 160.46875 60.5 161.3125 60.5 162.177083 60.5 C 163.041667 60.5 163.916667 60.5 164.8125 60.5 C 165.697917 60.5 167.5 60.5 168.395833 60.5 C 169.302083 60.5 170.197917 60.5 171.104167 60.5 C 172 60.5 172.895833 60.5 173.802083 60.5 C 174.697917 60.5 176.5 60.5 177.395833 60.5 C 178.302083 60.5 179.197917 60.5 180.09375 60.5 C 180.979167 60.5 181.864583 60.5 182.739583 60.5 C 183.614583 60.5 185.333333 60.5 186.177083 60.5 C 187.010417 60.5 187.833333 60.5 188.645833 60.5 C 189.4375 60.5 190.21875 60.5 190.979167 60.5 C 191.729167 60.5 193.166667 60.5 193.854167 60.5 C 194.53125 60.5 195.177083 60.5 195.8125 60.5 C 196.4375 60.5 197.041667 60.5 197.635417 60.5 C 198.208333 60.5 199.333333 60.5 199.875 60.5 C 200.416667 60.5 200.947917 60.5 201.979167 60.5 C 203 60.5 203.5 60.5 205 60.5 C 205.5 60.5 206.489583 60.5 207.46875 60.5 C 207.947917 60.5 209.333333 60.5 210.208333 60.5 C 211.041667 60.5 211.8125 60.5 212.53125 60.5 C 213.729167 60.5 214.677083 60.5 215.697917 60.5 L 216.479167 60.5 " transform="matrix(0.375,0,0,0.5,0,0)"/>
    <path style="fill:none;stroke-width:5;stroke-linecap:butt;stroke-linejoin:miter;stroke:rgb(0%,0%,0%);stroke-opacity:1;stroke-miterlimit:4;" d="M 190.5 35.5 C 190.5 36.304688 190.5 37.203125 190.5 38.101562 C 190.5 39.039062 190.53125 39.835938 190.479167 40.796875 C 190.447917 41.398438 190.375 42.085938 190.052083 43.242188 C 189.822917 44.117188 189.458333 45.023438 189.28125 45.484375 C 188.90625 46.421875 188.5 47.335938 188.104167 48.210938 C 187.708333 49.0625 187.333333 49.890625 187.15625 50.296875 C 186.645833 51.492188 186.385417 52.296875 186.125 53.085938 C 185.875 53.867188 185.65625 54.632812 185.177083 55.679688 C 184.875 56.351562 184.322917 57.25 183.979167 57.8125 C 183.385417 58.8125 183.010417 59.476562 182.5 60.5 C 182.104167 61.296875 181.791667 61.882812 181.583333 62.898438 C 181.427083 63.65625 181.21875 64.617188 180.791667 65.25 C 180.197917 66.15625 179.90625 66.710938 179.395833 67.703125 C 179 68.476562 178.4375 69.296875 178.020833 70 C 177.552083 70.78125 177.572917 71.539062 177.333333 72.5 C 177.125 73.320312 176.708333 74.101562 176.302083 74.898438 C 175.90625 75.664062 175.385417 76.46875 174.895833 77.125 C 174.28125 77.96875 174.041667 78.703125 173.479167 79.515625 C 173.010417 80.179688 172.520833 80.976562 172.5 81.851562 L 172.28125 82.71875 L 171.666667 83.335938 " transform="matrix(0.375,0,0,0.5,0,0)"/>
    <path style="fill:none;stroke-width:5;stroke-linecap:butt;stroke-linejoin:miter;stroke:rgb(0%,0%,0%);stroke-opacity:1;stroke-miterlimit:4;" d="M 146.5 61.5 C 147.333333 61.664062 147.59375 62.570312 148.145833 63.101562 C 148.895833 63.8125 149.520833 64 150.5 64.5 C 151.291667 64.898438 152.03125 65.273438 152.75 65.796875 C 153.395833 66.28125 154.166667 66.78125 154.84375 67.203125 C 155.760417 67.765625 156.375 68.25 157.322917 68.476562 C 158.322917 68.710938 158.96875 69.039062 159.697917 69.695312 C 160.291667 70.226562 161.114583 70.492188 161.895833 70.921875 C 162.71875 71.382812 163.625 71.695312 164.197917 72.203125 C 164.927083 72.851562 165.729167 73.171875 166.375 73.71875 C 167.041667 74.28125 167.71875 74.757812 168.375 75.375 C 168.947917 75.90625 169.729167 76.46875 170.21875 77.21875 C 170.677083 77.921875 171.229167 78.375 171.927083 78.921875 C 172.59375 79.453125 172.5 80.460938 173.072917 81.078125 L 173.5 81.78125 " transform="matrix(0.375,0,0,0.5,0,0)"/>
    <path style="fill:none;stroke-width:5;stroke-linecap:butt;stroke-linejoin:miter;stroke:rgb(0%,0%,0%);stroke-opacity:1;stroke-miterlimit:4;" d="M 191.5 39.5 C 192.364583 39.5 193.354167 39.351562 194.09375 39.539062 C 194.979167 39.765625 195.666667 40.507812 196.322917 40.898438 C 197.010417 41.304688 197.8125 42.015625 198.666667 42.335938 C 199.46875 42.625 200.395833 42.578125 201.09375 43.109375 C 201.875 43.710938 202.302083 44.296875 203 45 C 203.697917 45.695312 204.3125 46.179688 205.104167 46.523438 C 205.927083 46.890625 206.822917 47.359375 207.5 47.5 C 208.479167 47.695312 209.041667 48.164062 209.802083 48.796875 C 210.5625 49.429688 211.166667 49.898438 211.78125 50.414062 C 212.447917 50.976562 213.333333 51.335938 213.927083 51.921875 C 214.552083 52.554688 215.145833 53.148438 215.854167 53.851562 L 216.46875 54.460938 " transform="matrix(0.375,0,0,0.5,0,0)"/>
  </g>
</svg>